<svg width="68" height="68" viewBox="0 0 68 68" fill="none" xmlns="http://www.w3.org/2000/svg">
<g filter="url(#filter0_dd_1_303)">
<path d="M12 16C12 8.26801 18.268 2 26 2H42C49.732 2 56 8.26801 56 16V32C56 39.732 49.732 46 42 46H26C18.268 46 12 39.732 12 32V16Z" fill="#4F39F6" shape-rendering="crispEdges"/>
<path d="M32 25C32.4295 25.5741 32.9774 26.0491 33.6066 26.3929C34.2357 26.7367 34.9315 26.9411 35.6467 26.9923C36.3618 27.0435 37.0796 26.9403 37.7513 26.6897C38.4231 26.4392 39.0331 26.047 39.54 25.54L42.54 22.54C43.4508 21.597 43.9548 20.3339 43.9434 19.023C43.932 17.712 43.4061 16.4579 42.4791 15.5309C41.5521 14.6038 40.298 14.078 38.987 14.0666C37.676 14.0552 36.413 14.5592 35.47 15.47L33.75 17.18" stroke="white" stroke-width="2" stroke-linecap="round" stroke-linejoin="round"/>
<path d="M36 23C35.5705 22.4259 35.0226 21.9508 34.3935 21.607C33.7643 21.2633 33.0685 21.0589 32.3534 21.0076C31.6382 20.9564 30.9204 21.0596 30.2487 21.3102C29.5769 21.5608 28.9669 21.9529 28.46 22.46L25.46 25.46C24.5492 26.403 24.0452 27.666 24.0566 28.977C24.068 30.288 24.5939 31.542 25.5209 32.4691C26.4479 33.3961 27.702 33.922 29.013 33.9334C30.324 33.9447 31.587 33.4408 32.53 32.53L34.24 30.82" stroke="white" stroke-width="2" stroke-linecap="round" stroke-linejoin="round"/>
</g>
<defs>
<filter id="filter0_dd_1_303" x="0" y="0" width="68" height="68" filterUnits="userSpaceOnUse" color-interpolation-filters="sRGB">
<feFlood flood-opacity="0" result="BackgroundImageFix"/>
<feColorMatrix in="SourceAlpha" type="matrix" values="0 0 0 0 0 0 0 0 0 0 0 0 0 0 0 0 0 0 127 0" result="hardAlpha"/>
<feMorphology radius="4" operator="erode" in="SourceAlpha" result="effect1_dropShadow_1_303"/>
<feOffset dy="4"/>
<feGaussianBlur stdDeviation="3"/>
<feComposite in2="hardAlpha" operator="out"/>
<feColorMatrix type="matrix" values="0 0 0 0 0.380392 0 0 0 0 0.372549 0 0 0 0 1 0 0 0 0.4 0"/>
<feBlend mode="normal" in2="BackgroundImageFix" result="effect1_dropShadow_1_303"/>
<feColorMatrix in="SourceAlpha" type="matrix" values="0 0 0 0 0 0 0 0 0 0 0 0 0 0 0 0 0 0 127 0" result="hardAlpha"/>
<feMorphology radius="3" operator="erode" in="SourceAlpha" result="effect2_dropShadow_1_303"/>
<feOffset dy="10"/>
<feGaussianBlur stdDeviation="7.5"/>
<feComposite in2="hardAlpha" operator="out"/>
<feColorMatrix type="matrix" values="0 0 0 0 0.380392 0 0 0 0 0.372549 0 0 0 0 1 0 0 0 0.4 0"/>
<feBlend mode="normal" in2="effect1_dropShadow_1_303" result="effect2_dropShadow_1_303"/>
<feBlend mode="normal" in="SourceGraphic" in2="effect2_dropShadow_1_303" result="shape"/>
</filter>
</defs>
</svg>
